<svg width="394" height="394" viewBox="0 0 394 394" fill="none" xmlns="http://www.w3.org/2000/svg">
<circle cx="197" cy="197" r="191" fill="#24AAE5" stroke="black" stroke-width="12"/>
<path d="M72.1732 266.362L22 314.864L36.5238 292.634L61.6104 261.31L77.4545 239.08L109.143 205.735L143.472 170.369L246.459 79.4286L161.957 181.484L224.013 116.815L202.887 147.129L278.147 72.3554L202.887 158.244L327 38L270.225 107.721L307.195 84.4808L246.459 145.108L267.584 137.024L264.944 152.181L290.03 135.003L255.701 181.484L312.476 130.962L307.195 145.108L323.039 135.003L316.437 145.108L327 141.066L300.593 172.39L255.701 219.882L177.801 285.561L187.043 266.362L177.801 271.415L226.654 209.777L109.143 328L113.104 311.833L99.9004 322.948L109.143 306.78L95.9394 309.812L143.472 257.268L85.3766 309.812L135.55 248.174L109.143 264.341L169.879 197.652L65.5714 289.603L109.143 239.08L53.6883 292.634L72.1732 266.362Z" fill="white" stroke="black" stroke-width="8"/>
</svg>
