<svg width="198" height="200" viewBox="0 0 198 200" fill="none" xmlns="http://www.w3.org/2000/svg">
<path d="M97.1274 195.649C79.3506 199.644 66.251 193.985 61.9233 190.656C48.7737 179.005 20.9267 153.754 14.7347 145.964C6.9948 136.227 7.49415 131.233 6.49545 121.496C5.69649 113.706 3.83225 101.772 3 96.7783V49.5897C3 47.6602 3.18438 45.8288 3.51703 44.0969C3.58674 42.9187 3.85025 41.9367 4.25734 41.1223C7.26528 31.3323 14.944 25.2336 19.2289 23.1242C33.4603 19.2958 67.6658 10.4406 90.6359 5.64688C113.606 0.853123 124.675 3.64948 127.338 5.64688C140.737 11.6391 170.082 25.0217 180.269 30.6144C190.456 36.2071 194.334 53.7509 195 61.8237C193.668 81.2984 190.606 123.643 189.008 137.226C187.41 150.808 176.358 162.359 171.031 166.438C153.804 174.51 114.904 191.655 97.1274 195.649Z" fill="white"/>
<path d="M61.9233 190.656C66.251 193.985 79.3506 199.644 97.1274 195.649C114.904 191.655 153.804 174.51 171.031 166.438C176.358 162.359 187.41 150.808 189.008 137.226C190.606 123.643 193.668 81.2984 195 61.8237C194.334 53.7509 190.456 36.2071 180.269 30.6144C170.082 25.0217 140.737 11.6391 127.338 5.64688M61.9233 190.656C48.7737 179.005 20.9267 153.754 14.7347 145.964C6.9948 136.227 7.49415 131.233 6.49545 121.496C5.69649 113.706 3.83225 101.772 3 96.7783C3 87.2074 3 64.3705 3 49.5897C3 47.6602 3.18438 45.8288 3.51703 44.0969M61.9233 190.656C65.8349 189.408 73.658 182.816 73.658 166.438C73.658 150.059 70.6619 116.336 69.1638 101.522C69.6632 96.0293 68.9142 82.9962 61.9233 74.8069C54.9324 66.6176 27.5514 46.7601 14.7347 37.855C11.1678 37.0228 3.93066 37.106 3.51703 44.0969M127.338 5.64688C124.675 3.64948 113.606 0.853123 90.6359 5.64688C67.6658 10.4406 33.4603 19.2958 19.2289 23.1242M127.338 5.64688C141.902 12.3984 172.879 27.2435 180.269 32.6118C187.66 37.9801 180.852 42.5053 176.524 44.0969C154.719 50.0058 107.514 62.9723 93.1326 67.5663C78.7514 72.1604 71.1612 69.4805 69.1638 67.5663C55.4317 57.6625 26.5693 36.8064 20.9766 32.6118C15.3839 28.4173 17.4811 24.539 19.2289 23.1242M19.2289 23.1242C14.5254 25.4397 5.73259 32.5619 3.51703 44.0969" stroke="black" stroke-width="5"/>
<path d="M83.1457 171.281C83.9447 190.456 91.8011 195.749 95.6295 195.999C112.524 189.673 150.108 175.375 165.289 168.784C180.469 162.193 186.927 148.227 188.259 142.069C189.84 120.597 193.202 74.8563 194.001 63.6708C194.8 52.4854 187.843 50.5213 184.264 50.9374C159.297 58.5109 106.615 74.4568 95.6295 77.6526C84.6438 80.8485 82.7296 88.139 83.1457 91.3847C82.8128 110.027 82.3468 152.106 83.1457 171.281Z" fill="black" stroke="black"/>
</svg>
