<svg width="394" height="394" viewBox="0 0 394 394" fill="none" xmlns="http://www.w3.org/2000/svg">
<circle cx="197" cy="197" r="191" fill="#A54398" stroke="black" stroke-width="12"/>
<path d="M78.4379 266.092C63.5922 214.061 66.3139 166.071 69.5305 148.58C77.2502 106.009 106.397 108.177 120.006 114.583C137.227 87.3848 164.295 92.4105 175.677 98.3231C200.618 68.7604 233.08 86.0053 246.194 98.3231C248.421 95.1204 259.852 90.6367 287.762 98.3231C310.642 104.624 312.803 170.625 310.113 220.269L326.361 249.832C327.598 253.528 329.33 264.318 326.361 277.917C323.391 291.516 317.206 304.77 314.484 309.697C314.237 311.421 310.179 315.314 295.927 317.087C281.675 318.861 244.957 321.768 228.379 323C220.956 322.015 205.517 317.087 203.142 305.262C200.172 290.481 205.368 281.779 207.595 279.848C196.365 278.104 186.243 271.718 180.131 266.092C157.565 293.881 133.614 277.67 124.46 266.092C111.841 277.917 81.8119 277.917 78.4379 266.092Z" fill="white"/>
<path d="M124.46 266.092C111.841 277.917 81.8119 277.917 78.4379 266.092C63.5922 214.061 66.3139 166.071 69.5305 148.58C77.2502 106.009 106.397 108.177 120.006 114.583C137.227 87.3848 164.295 92.4105 175.677 98.3231C200.618 68.7604 233.08 86.0053 246.194 98.3231C248.421 95.1204 259.852 90.6367 287.762 98.3231C310.642 104.624 312.803 170.625 310.113 220.269M124.46 266.092C121.49 235.051 117.334 170.9 124.46 162.622M124.46 266.092C133.614 277.67 157.565 293.881 180.131 266.092M180.131 266.092C177.162 266.092 178.894 187.75 180.131 148.58M180.131 266.092C186.243 271.718 196.365 278.104 207.595 279.848M246.194 259.44C241.443 243.476 244.215 178.882 246.194 148.58M246.194 259.44C258.318 270.28 287.613 283.534 307.803 249.832C308.695 241.307 309.521 231.184 310.113 220.269M246.194 259.44C234.78 277.75 220.46 281.845 207.595 279.848M310.113 220.269L326.361 249.832C327.598 253.528 329.33 264.318 326.361 277.917C323.391 291.516 317.206 304.77 314.484 309.697C314.237 311.421 310.179 315.314 295.927 317.087C281.675 318.861 244.957 321.768 228.379 323C220.956 322.015 205.517 317.087 203.142 305.262C200.172 290.481 205.368 281.779 207.595 279.848" stroke="black" stroke-width="12"/>
</svg>
