<svg width="407" height="484" viewBox="0 0 407 484" fill="none" xmlns="http://www.w3.org/2000/svg">
<path d="M121.633 457.857H137.194C122.002 431.005 108.357 387.644 103.434 369.32L117.413 382.534C111.927 361.603 119.699 328.355 124.27 314.348C140.517 338.239 161.283 349.146 169.636 351.612C169.214 335.755 184.581 312.762 192.318 303.247C195.694 321.219 203.747 340.512 207.352 347.912C218.535 347.489 245.596 315.845 257.728 300.076C264.058 308.745 258.607 338.045 255.091 351.612C269.017 351.612 294.653 327.826 305.731 315.933C312.061 329.888 295.533 364.386 286.477 379.891C299.137 376.931 318.127 359.805 326.04 351.612C320.554 378.464 301.071 413.72 292.016 427.992C309.107 419.535 319.534 407.378 322.611 402.356C314.382 430.899 284.543 465.345 270.652 479C283.945 479 336.854 453.804 361.646 441.207C356.547 442.792 343.658 445.964 332.897 445.964L359.009 421.121C375.678 401.246 394.615 334.257 402 303.247C393.56 317.413 377.207 333.993 370.086 340.512C371.669 334.962 376.416 318.788 382.746 298.49C389.076 278.193 376.944 192.95 370.086 152.866C359.536 172.107 347.931 188.193 343.447 193.831C339.227 175.437 334.656 140.004 332.897 124.587C329.099 107.039 295.093 42.2171 278.565 12C254.3 74.161 215.704 118.949 199.439 133.573C189.311 107.144 209.286 52.6125 220.539 28.6503C130.073 86.4744 83.9165 151.809 76.004 166.61C69.674 178.45 66.5089 227.396 65.7177 250.389C65.7177 250.389 27.298 212.155 13.2313 193.831C12.8796 207.046 12.3873 244.945 13.2313 290.826C14.0753 336.706 58.2448 384.296 80.224 402.356C80.224 402.356 21.3196 391.608 4 386.763C4 386.763 55.871 426.583 76.004 438.564L121.633 457.857Z" fill="white" stroke="black" stroke-width="10"/>
</svg>
